HIERARCHY
ROOT root
{
  OFFSET -63.9245 92.6846 28.11
  CHANNELS 6 Xposition Yposition Zposition Zrotation Xrotation Yrotation
  JOINT rfemur
  {
    OFFSET -6.87808 -8.58224 4.63091
    CHANNELS 6 Xposition Yposition Zposition Zrotation Xrotation Yrotation
    JOINT rtibia
    {
      OFFSET 1.05643e-005 -39.9586 0
      CHANNELS 6 Xposition Yposition Zposition Zrotation Xrotation Yrotation
      JOINT rfoot
      {
        OFFSET 0 -32.7363 0
        CHANNELS 6 Xposition Yposition Zposition Zrotation Xrotation Yrotation
        JOINT rtoes
        {
          OFFSET 0 -11.385 -7.56517
          CHANNELS 6 Xposition Yposition Zposition Zrotation Xrotation Yrotation
          End Site
          {
            OFFSET 0 -6.46114 0
          }
        }
      }
    }
  }
  JOINT lfemur
  {
    OFFSET 6.18079 -8.58223 4.6309
    CHANNELS 6 Xposition Yposition Zposition Zrotation Xrotation Yrotation
    JOINT ltibia
    {
      OFFSET -1.0381e-005 -39.2652 0
      CHANNELS 6 Xposition Yposition Zposition Zrotation Xrotation Yrotation
      JOINT lfoot
      {
        OFFSET -0.00334357 -31.3814 0
        CHANNELS 6 Xposition Yposition Zposition Zrotation Xrotation Yrotation
        JOINT ltoes
        {
          OFFSET 0 -9.94555 -8.16007
          CHANNELS 6 Xposition Yposition Zposition Zrotation Xrotation Yrotation
          End Site
          {
            OFFSET 0 -5.95839 0
          }
        }
      }
    }
  }
}
MOTION
Frames:	19
Frame Time:	0.00833333
5.06224 93.4236 28.2846 -11.099 -3.32926 94.712 -6.87808 -8.58224 4.63091 -2.61558 -17.2718 -17.576 1.05643e-005 -39.9586 0 -0 26.0125 0 8.65485e-006 -32.7363 0 145.162 -69.6426 143.411 2.3106e-006 -11.385 -7.56517 0 6.44062e-014 -0 6.18079 -8.58223 4.6309 7.29372 -20.4029 21.0177 -1.0381e-005 -39.2652 0 -0 28.1032 0 -0.00334357 -31.3814 0 -113.165 -64.0047 -111.036 -2.72415e-008 -9.94555 -8.16007 0 6.36111e-015 -0 
5.07406 93.4235 28.2728 -11.1136 -3.34108 94.7094 -6.87808 -8.58224 4.63091 -2.60052 -17.2733 -17.5571 1.05643e-005 -39.9586 0 -0 26.0038 0 8.65485e-006 -32.7363 0 145.197 -69.6627 143.45 2.3106e-006 -11.385 -7.56517 0 6.44062e-014 -0 6.18079 -8.58223 4.6309 7.3149 -20.4111 21.0648 -1.0381e-005 -39.2652 0 -0 28.1111 0 -0.00334357 -31.3814 0 -113.135 -63.9697 -111.002 -2.72415e-008 -9.94555 -8.16007 0 6.36111e-015 -0 
5.08944 93.4237 28.2613 -11.1109 -3.35817 94.7084 -6.87808 -8.58224 4.63091 -2.58011 -17.2815 -17.5281 1.05643e-005 -39.9586 0 -0 25.9944 0 8.65485e-006 -32.7363 0 145.228 -69.6924 143.487 2.3106e-006 -11.385 -7.56517 0 6.44062e-014 -0 6.18079 -8.58223 4.6309 7.3391 -20.426 21.1149 -1.0381e-005 -39.2652 0 -0 28.1175 0 -0.00334357 -31.3814 0 -113.097 -63.9402 -110.963 -2.72415e-008 -9.94555 -8.16007 0 6.36111e-015 -0 
5.10258 93.4242 28.256 -11.1094 -3.37435 94.7035 -6.87808 -8.58224 4.63091 -2.56028 -17.2905 -17.494 1.05643e-005 -39.9586 0 -0 25.9849 0 8.65485e-006 -32.7363 0 145.265 -69.7235 143.53 2.3106e-006 -11.385 -7.56517 0 6.44062e-014 -0 6.18079 -8.58223 4.6309 7.35946 -20.4413 21.1567 -1.0381e-005 -39.2652 0 -0 28.1228 0 -0.00334357 -31.3814 0 -113.065 -63.9206 -110.93 -2.72415e-008 -9.94555 -8.16007 0 6.36111e-015 -0 
5.11208 93.4251 28.2418 -11.1563 -3.3958 94.7109 -6.87808 -8.58224 4.63091 -2.547 -17.2944 -17.4597 1.05643e-005 -39.9586 0 -0 25.976 0 8.65485e-006 -32.7363 0 145.319 -69.7481 143.59 2.3106e-006 -11.385 -7.56517 0 6.44062e-014 -0 6.18079 -8.58223 4.6309 7.3691 -20.4505 21.1786 -1.0381e-005 -39.2652 0 -0 28.127 0 -0.00334357 -31.3814 0 -113.051 -63.9153 -110.916 -2.72415e-008 -9.94555 -8.16007 0 6.36111e-015 -0 
5.12478 93.4342 28.2213 -11.1841 -3.34643 94.685 -6.87808 -8.58224 4.63091 -2.54298 -17.2908 -17.4223 1.05643e-005 -39.9586 0 -0 25.9663 0 8.65485e-006 -32.7363 0 145.406 -69.7654 143.682 2.3106e-006 -11.385 -7.56517 0 6.44062e-014 -0 6.18079 -8.58223 4.6309 7.36276 -20.452 21.172 -1.0381e-005 -39.2652 0 -0 28.13 0 -0.00334357 -31.3814 0 -113.062 -63.9308 -110.928 -2.72415e-008 -9.94555 -8.16007 0 6.36111e-015 -0 
5.13941 93.4376 28.2105 -11.1806 -3.35526 94.6901 -6.87808 -8.58224 4.63091 -2.54468 -17.2831 -17.3804 1.05643e-005 -39.9586 0 -0 25.956 0 8.65485e-006 -32.7363 0 145.517 -69.7792 143.797 2.3106e-006 -11.385 -7.56517 0 6.44062e-014 -0 6.18079 -8.58223 4.6309 7.34523 -20.4493 21.1449 -1.0381e-005 -39.2652 0 -0 28.1316 0 -0.00334357 -31.3814 0 -113.089 -63.9629 -110.959 -2.72415e-008 -9.94555 -8.16007 0 6.36111e-015 -0 
5.15281 93.4377 28.1973 -11.1772 -3.36339 94.6904 -6.87808 -8.58224 4.63091 -2.54869 -17.2744 -17.3418 1.05643e-005 -39.9586 0 -0 25.9479 0 8.65485e-006 -32.7363 0 145.621 -69.7881 143.906 2.3106e-006 -11.385 -7.56517 0 6.44062e-014 -0 6.18079 -8.58223 4.6309 7.32471 -20.4433 21.1105 -1.0381e-005 -39.2652 0 -0 28.1326 0 -0.00334357 -31.3814 0 -113.125 -64.0001 -110.998 -2.72415e-008 -9.94555 -8.16007 0 6.36111e-015 -0 
5.16885 93.4364 28.1909 -11.1881 -3.37958 94.6712 -6.87808 -8.58224 4.63091 -2.55158 -17.268 -17.3141 1.05643e-005 -39.9586 0 -0 25.9449 0 8.65485e-006 -32.7363 0 145.693 -69.7906 143.979 2.3106e-006 -11.385 -7.56517 0 6.44062e-014 -0 6.18079 -8.58223 4.6309 7.30937 -20.4348 21.0821 -1.0381e-005 -39.2652 0 -0 28.1335 0 -0.00334357 -31.3814 0 -113.159 -64.0312 -111.035 -2.72415e-008 -9.94555 -8.16007 0 6.36111e-015 -0 
5.18081 93.4314 28.1837 -11.1839 -3.39118 94.6617 -6.87808 -8.58224 4.63091 -2.55262 -17.2674 -17.3032 1.05643e-005 -39.9586 0 -0 25.9491 0 8.65485e-006 -32.7363 0 145.709 -69.7859 143.995 2.3106e-006 -11.385 -7.56517 0 6.44062e-014 -0 6.18079 -8.58223 4.6309 7.30187 -20.4245 21.0609 -1.0381e-005 -39.2652 0 -0 28.1343 0 -0.00334357 -31.3814 0 -113.187 -64.0561 -111.065 -2.72415e-008 -9.94555 -8.16007 0 6.36111e-015 -0 
5.19235 93.4223 28.1693 -11.1872 -3.39586 94.6444 -6.87808 -8.58224 4.63091 -2.55358 -17.2699 -17.3037 1.05643e-005 -39.9586 0 -0 25.9585 0 8.65485e-006 -32.7363 0 145.691 -69.7749 143.975 2.3106e-006 -11.385 -7.56517 0 6.44062e-014 -0 6.18079 -8.58223 4.6309 7.2977 -20.4118 21.0407 -1.0381e-005 -39.2652 0 -0 28.1349 0 -0.00334357 -31.3814 0 -113.215 -64.0799 -111.094 -2.72415e-008 -9.94555 -8.16007 0 6.36111e-015 -0 
5.20729 93.4161 28.1652 -11.1917 -3.37683 94.6202 -6.87808 -8.58224 4.63091 -2.55474 -17.2698 -17.3064 1.05643e-005 -39.9586 0 -0 25.9698 0 8.65485e-006 -32.7363 0 145.67 -69.7591 143.95 2.3106e-006 -11.385 -7.56517 0 6.44062e-014 -0 6.18079 -8.58223 4.6309 7.29424 -20.3957 21.0233 -1.0381e-005 -39.2652 0 -0 28.1351 0 -0.00334357 -31.3814 0 -113.248 -64.0986 -111.129 -2.72415e-008 -9.94555 -8.16007 0 6.36111e-015 -0 
5.21944 93.4166 28.1573 -11.1784 -3.39007 94.6149 -6.87808 -8.58224 4.63091 -2.55642 -17.261 -17.3021 1.05643e-005 -39.9586 0 -0 25.9799 0 8.65485e-006 -32.7363 0 145.678 -69.7401 143.955 2.3106e-006 -11.385 -7.56517 0 6.44062e-014 -0 6.18079 -8.58223 4.6309 7.28886 -20.3752 21.0104 -1.0381e-005 -39.2652 0 -0 28.1349 0 -0.00334357 -31.3814 0 -113.295 -64.1082 -111.174 -2.72415e-008 -9.94555 -8.16007 0 6.36111e-015 -0 
5.23852 93.4183 28.1442 -11.1611 -3.40174 94.6062 -6.87808 -8.58224 4.63091 -2.56035 -17.2394 -17.2894 1.05643e-005 -39.9586 0 -0 25.9895 0 8.65485e-006 -32.7363 0 145.729 -69.7131 144.002 2.3106e-006 -11.385 -7.56517 0 6.44062e-014 -0 6.18079 -8.58223 4.6309 7.27975 -20.3476 21.0058 -1.0381e-005 -39.2652 0 -0 28.1338 0 -0.00334357 -31.3814 0 -113.361 -64.1013 -111.234 -2.72415e-008 -9.94555 -8.16007 0 6.36111e-015 -0 
5.25819 93.4189 28.1363 -11.1301 -3.3834 94.5977 -6.87808 -8.58224 4.63091 -2.56584 -17.209 -17.2729 1.05643e-005 -39.9586 0 -0 25.9999 0 8.65485e-006 -32.7363 0 145.805 -69.679 144.074 2.3106e-006 -11.385 -7.56517 0 6.44062e-014 -0 6.18079 -8.58223 4.6309 7.26869 -20.3143 21.0074 -1.0381e-005 -39.2652 0 -0 28.1319 0 -0.00334357 -31.3814 0 -113.441 -64.0819 -111.305 -2.72415e-008 -9.94555 -8.16007 0 6.36111e-015 -0 
5.25849 93.4139 28.1228 -11.1115 -3.37255 94.6016 -6.87808 -8.58224 4.63091 -2.56949 -17.1761 -17.2524 1.05643e-005 -39.9586 0 -0 26.0081 0 8.65485e-006 -32.7363 0 145.885 -69.6478 144.15 2.3106e-006 -11.385 -7.56517 0 6.44062e-014 -0 6.18079 -8.58223 4.6309 7.25837 -20.2804 21.0083 -1.0381e-005 -39.2652 0 -0 28.1306 0 -0.00334357 -31.3814 0 -113.525 -64.064 -111.38 -2.72415e-008 -9.94555 -8.16007 0 6.36111e-015 -0 
5.27831 93.4009 28.123 -11.1131 -3.37455 94.5778 -6.87808 -8.58224 4.63091 -2.56792 -17.1473 -17.2277 1.05643e-005 -39.9586 0 -0 26.0115 0 8.65485e-006 -32.7363 0 145.949 -69.6294 144.212 2.3106e-006 -11.385 -7.56517 0 6.44062e-014 -0 6.18079 -8.58223 4.6309 7.25155 -20.2508 21.0017 -1.0381e-005 -39.2652 0 -0 28.1312 0 -0.00334357 -31.3814 0 -113.605 -64.0611 -111.453 -2.72415e-008 -9.94555 -8.16007 0 6.36111e-015 -0 
5.29055 93.4043 28.1153 -11.1091 -3.36347 94.5573 -6.87808 -8.58224 4.63091 -2.55879 -17.1223 -17.192 1.05643e-005 -39.9586 0 -0 26.0075 0 8.65485e-006 -32.7363 0 145.998 -69.6329 144.263 2.3106e-006 -11.385 -7.56517 0 6.44062e-014 -0 6.18079 -8.58223 4.6309 7.24804 -20.226 20.9815 -1.0381e-005 -39.2652 0 -0 28.1345 0 -0.00334357 -31.3814 0 -113.683 -64.0817 -111.529 -2.72415e-008 -9.94555 -8.16007 0 6.36111e-015 -0 
5.30164 93.4059 28.1144 -11.1035 -3.38484 94.5513 -6.87808 -8.58224 4.63091 -2.54441 -17.0983 -17.1477 1.05643e-005 -39.9586 0 -0 25.9982 0 8.65485e-006 -32.7363 0 146.04 -69.6508 144.31 2.3106e-006 -11.385 -7.56517 0 6.44062e-014 -0 6.18079 -8.58223 4.6309 7.24672 -20.2037 20.9529 -1.0381e-005 -39.2652 0 -0 28.1396 0 -0.00334357 -31.3814 0 -113.763 -64.1168 -111.609 -2.72415e-008 -9.94555 -8.16007 0 6.36111e-015 -0 
